<?xml version="1.0" encoding="UTF-8"?>
<svg width="128px" height="128px" viewBox="0 0 128 128" version="1.1" xmlns="http://www.w3.org/2000/svg" xmlns:xlink="http://www.w3.org/1999/xlink">
    <!-- Generator: Sketch 48.2 (47327) - http://www.bohemiancoding.com/sketch -->
    <title>repair_password</title>
    <desc>Created with Sketch.</desc>
    <defs>
        <filter x="-7.7%" y="-3.8%" width="113.8%" height="115.0%" filterUnits="objectBoundingBox" id="filter-1">
            <feOffset dx="0" dy="2" in="SourceAlpha" result="shadowOffsetOuter1"></feOffset>
            <feGaussianBlur stdDeviation="2" in="shadowOffsetOuter1" result="shadowBlurOuter1"></feGaussianBlur>
            <feColorMatrix values="0 0 0 0 0   0 0 0 0 0   0 0 0 0 0  0 0 0 0.1 0" type="matrix" in="shadowBlurOuter1" result="shadowMatrixOuter1"></feColorMatrix>
            <feMerge>
                <feMergeNode in="shadowMatrixOuter1"></feMergeNode>
                <feMergeNode in="SourceGraphic"></feMergeNode>
            </feMerge>
        </filter>
        <linearGradient x1="29.6631678%" y1="4.32272712%" x2="68.8760951%" y2="92.3964037%" id="linearGradient-2">
            <stop stop-color="#3BA8FF" offset="0%"></stop>
            <stop stop-color="#0084FF" offset="100%"></stop>
        </linearGradient>
        <path d="M3.68190451,17.3433541 L39.5435021,1.37674219 C42.0661882,0.253569963 45.0217404,1.38810014 46.1449126,3.91078626 L71.0308813,59.8055871 C72.1540535,62.3282732 71.0195234,65.2838254 68.4968372,66.4069976 L32.6352396,82.3736096 C30.1125535,83.4967818 27.1570014,82.3622516 26.0338291,79.8395655 L1.14786043,23.9447646 C0.0246882068,21.4220785 1.15921838,18.4665264 3.68190451,17.3433541 Z M8.61971831,28.3414634 C11.1400036,28.3414634 13.1830986,26.302175 13.1830986,23.7865854 C13.1830986,21.2709957 11.1400036,19.2317073 8.61971831,19.2317073 C6.09943297,19.2317073 4.05633803,21.2709957 4.05633803,23.7865854 C4.05633803,26.302175 6.09943297,28.3414634 8.61971831,28.3414634 Z" id="path-3"></path>
        <filter x="-2.8%" y="-1.2%" width="105.7%" height="104.9%" filterUnits="objectBoundingBox" id="filter-5">
            <feOffset dx="0" dy="1" in="SourceAlpha" result="shadowOffsetOuter1"></feOffset>
            <feGaussianBlur stdDeviation="0.5" in="shadowOffsetOuter1" result="shadowBlurOuter1"></feGaussianBlur>
            <feColorMatrix values="0 0 0 0 0   0 0 0 0 0   0 0 0 0 0  0 0 0 0.1 0" type="matrix" in="shadowBlurOuter1"></feColorMatrix>
        </filter>
        <filter x="-2.1%" y="-0.6%" width="104.2%" height="103.7%" filterUnits="objectBoundingBox" id="filter-6">
            <feOffset dx="0" dy="-1" in="SourceAlpha" result="shadowOffsetInner1"></feOffset>
            <feComposite in="shadowOffsetInner1" in2="SourceAlpha" operator="arithmetic" k2="-1" k3="1" result="shadowInnerInner1"></feComposite>
            <feColorMatrix values="0 0 0 0 0.114215952   0 0 0 0 0.200791147   0 0 0 0 0.702168367  0 0 0 0.5 0" type="matrix" in="shadowInnerInner1" result="shadowMatrixInner1"></feColorMatrix>
            <feOffset dx="0" dy="1" in="SourceAlpha" result="shadowOffsetInner2"></feOffset>
            <feComposite in="shadowOffsetInner2" in2="SourceAlpha" operator="arithmetic" k2="-1" k3="1" result="shadowInnerInner2"></feComposite>
            <feColorMatrix values="0 0 0 0 0.424143782   0 0 0 0 0.781902281   0 0 0 0 1  0 0 0 0.5 0" type="matrix" in="shadowInnerInner2" result="shadowMatrixInner2"></feColorMatrix>
            <feMerge>
                <feMergeNode in="shadowMatrixInner1"></feMergeNode>
                <feMergeNode in="shadowMatrixInner2"></feMergeNode>
            </feMerge>
        </filter>
        <path d="M49.6521735,25.0405737 C49.6521735,38.4569366 38.7555515,49.3332566 25.3141454,49.3332566 C11.8727392,49.3332566 0.976117183,38.4569366 0.976117183,25.0405737 C0.976117183,11.6242107 11.8727392,0.747890732 25.3141454,0.747890732 C38.7555515,0.747890732 49.6521735,11.6242107 49.6521735,25.0405737" id="path-7"></path>
        <path d="M4.35034141,34.5769093 C9.17705915,35.9810263 22.3867673,39.01664 30.7278963,33.1387824 C36.1377532,29.3258029 35.4407121,23.2195941 35.4407121,23.2195941 C35.3511482,18.5748332 32.4101408,13.9611668 32.4101408,13.9611668 C43.8460935,23.9085346 37.0869363,34.959762 37.0869363,34.959762 C33.6065983,41.7947512 26.0627831,45.9050732 20.045449,47.3451434 C13.0526468,45.7398829 7.28161352,40.9445073 4.35034141,34.5769093 L4.35034141,34.5769093 Z M7.44808563,10.524238 C8.86553239,17.9335063 12.0431054,24.1835278 14.1566197,26.4553795 C16.88832,29.391879 20.9118828,32.5091161 26.0744654,31.2206322 C31.2389949,29.9321483 32.2894242,24.2981893 32.2894242,24.2981893 C33.430391,19.5037854 31.8065577,13.8105522 31.7189408,13.6910322 C31.6313239,13.5705405 30.8564011,13.4364449 30.8564011,13.4364449 C31.6663707,20.9866107 29.6764935,24.3273405 29.6764935,24.3273405 C26.7812417,30.2469815 22.5327955,28.4162849 22.5327955,28.4162849 C17.8053769,26.012281 18.0283132,19.2346224 18.0283132,19.2346224 C17.8842321,14.5228137 19.7543662,6.7326361 23.3495797,2.19767805 C16.9486783,2.7097678 11.2886265,5.84449561 7.44808563,10.524238 L7.44808563,10.524238 Z M34.190711,3.9448078 C31.4307786,6.18362146 26.7354862,10.9644215 26.7354862,10.9644215 C19.7699425,17.4058693 21.1211899,22.8299395 21.1211899,22.8299395 C22.2310039,28.5231727 25.6850569,24.6878439 25.6850569,24.6878439 C29.3162907,20.9419122 29.0456518,13.4811434 29.0456518,13.4811434 C27.5756349,13.7201834 26.6449487,14.5305873 26.6449487,14.5305873 C26.4648473,19.5037854 23.5228665,22.5899278 23.5228665,22.5899278 C22.3818997,23.8492605 21.5719301,22.6501737 21.5719301,22.6501737 C20.9722411,21.7503727 22.1716192,21.121678 22.1716192,21.121678 C23.8519166,19.6534283 24.3562006,17.1483668 24.3347831,16.2087259 C24.3104451,15.2661698 24.8137555,15.009639 24.8137555,15.009639 C27.185253,13.1808859 29.5577239,12.1022907 29.5577239,12.1022907 C32.739191,10.484398 38.4128721,10.2142634 38.4128721,10.2142634 C39.952009,10.2657639 41.4229994,10.1899707 42.5999865,10.0869698 C40.321947,7.44586927 37.4490862,5.32949073 34.190711,3.9448078 L34.190711,3.9448078 Z" id="path-9"></path>
        <linearGradient x1="78.2794778%" y1="3.98662852%" x2="13.7261208%" y2="100%" id="linearGradient-11">
            <stop stop-color="#F7F7F7" offset="0%"></stop>
            <stop stop-color="#E3E3E3" offset="29.3668052%"></stop>
            <stop stop-color="#E6E6E6" offset="48.8152479%"></stop>
            <stop stop-color="#ECECEC" offset="100%"></stop>
        </linearGradient>
        <path d="M61.622777,53.3092493 L58.687778,58.6244674 C58.3435641,58.9535671 57.0189012,58.7573978 54.7137891,58.0359598 C54.7137891,58.0359598 54.0008662,59.6248336 52.5750204,62.8025812 C52.4629508,63.1342621 50.8411432,63.873607 47.7095977,65.0206162 C46.8107993,65.3151926 46.7624493,66.6720835 47.5645476,69.0912886 C47.5005078,69.5168597 45.9358558,70.0006685 42.8705914,70.542715 C41.7649446,71.0992806 42.0476802,72.7507479 43.7187984,75.4971168 C43.8843412,75.9146217 42.5644813,76.4915141 39.7592185,77.2277939 C38.8671443,77.8972859 39.072712,79.5110035 40.3759216,82.0689468 C40.2468814,82.4232129 38.9178958,83.1778836 36.3889647,84.3329589 C36.3889647,84.3329589 36.9926998,86.0968685 38.2001699,89.6246879 C38.4931519,90.4822829 37.6414228,91.1682298 35.6449825,91.6825287 C34.6498042,92.1035827 34.520604,93.2946331 35.2573817,95.2556799 C28.2075619,98.0817427 24.3726995,96.6687113 23.7527944,91.0165859 L41.3201882,52.1237811 L38.9484748,49.4324234 L40.9510327,44.969252 C37.8442844,41.0665502 35.9858041,36.1115819 35.9858041,30.7192239 C35.9858041,18.1319729 46.1123732,7.92798981 58.6041293,7.92798981 C71.0958854,7.92798981 81.2224546,18.1319729 81.2224546,30.7192239 C81.2224546,42.2751331 72.6873512,51.8223227 61.622777,53.3092493 Z M62.8610707,28.441349 C66.6085975,28.441349 69.6465683,25.380154 69.6465683,21.6039787 C69.6465683,17.8278034 66.6085975,14.7666085 62.8610707,14.7666085 C59.1135439,14.7666085 56.0755731,17.8278034 56.0755731,21.6039787 C56.0755731,25.380154 59.1135439,28.441349 62.8610707,28.441349 Z" id="path-12"></path>
        <filter x="-13.1%" y="-5.1%" width="119.1%" height="112.4%" filterUnits="objectBoundingBox" id="filter-14">
            <feOffset dx="-2" dy="1" in="SourceAlpha" result="shadowOffsetOuter1"></feOffset>
            <feGaussianBlur stdDeviation="1.5" in="shadowOffsetOuter1" result="shadowBlurOuter1"></feGaussianBlur>
            <feColorMatrix values="0 0 0 0 0   0 0 0 0 0   0 0 0 0 0  0 0 0 0.2 0" type="matrix" in="shadowBlurOuter1"></feColorMatrix>
        </filter>
        <filter x="-9.1%" y="-2.5%" width="111.3%" height="107.3%" filterUnits="objectBoundingBox" id="filter-15">
            <feOffset dx="-0.5" dy="0" in="SourceAlpha" result="shadowOffsetInner1"></feOffset>
            <feComposite in="shadowOffsetInner1" in2="SourceAlpha" operator="arithmetic" k2="-1" k3="1" result="shadowInnerInner1"></feComposite>
            <feColorMatrix values="0 0 0 0 1   0 0 0 0 1   0 0 0 0 1  0 0 0 1 0" type="matrix" in="shadowInnerInner1"></feColorMatrix>
        </filter>
        <linearGradient x1="56.8848402%" y1="28.3100058%" x2="77.612346%" y2="32.7970375%" id="linearGradient-16">
            <stop stop-color="#E2E2E2" offset="0%"></stop>
            <stop stop-color="#898989" offset="100%"></stop>
        </linearGradient>
        <path d="M37.2641001,100.82507 L54.787396,62.5159115 C57.8403926,58.9357444 59.8165314,56.8441029 60.7158125,56.240987 C61.6150935,55.6378711 54.7552263,70.7652255 40.136211,101.62305 L37.2641001,100.82507 Z" id="path-17"></path>
        <filter x="-2.1%" y="-3.3%" width="104.2%" height="104.4%" filterUnits="objectBoundingBox" id="filter-18">
            <feOffset dx="0" dy="-1" in="SourceAlpha" result="shadowOffsetOuter1"></feOffset>
            <feColorMatrix values="0 0 0 0 1   0 0 0 0 1   0 0 0 0 1  0 0 0 0.797214674 0" type="matrix" in="shadowOffsetOuter1"></feColorMatrix>
        </filter>
        <linearGradient x1="96.7289645%" y1="-0.945946702%" x2="13.7261208%" y2="100%" id="linearGradient-19">
            <stop stop-color="#0039EC" offset="0%"></stop>
            <stop stop-color="#EEEEEE" offset="29.3668052%"></stop>
            <stop stop-color="#575757" offset="41.1776667%"></stop>
            <stop stop-color="#DFDFDF" offset="48.8152479%"></stop>
            <stop stop-color="#3D3D3D" offset="58.174771%"></stop>
            <stop stop-color="#8C8C8C" offset="66.0109412%"></stop>
            <stop stop-color="#6F6F6F" offset="91.9072902%"></stop>
            <stop stop-color="#ECECEC" offset="100%"></stop>
        </linearGradient>
        <linearGradient x1="92.4508304%" y1="22.350424%" x2="20.3009837%" y2="83.9838913%" id="linearGradient-20">
            <stop stop-color="#F1F1F1" offset="0%"></stop>
            <stop stop-color="#EAEAEA" offset="100%"></stop>
        </linearGradient>
        <linearGradient x1="100%" y1="32.0941131%" x2="4.45355458%" y2="70.4138016%" id="linearGradient-21">
            <stop stop-color="#AFAFAF" offset="0%"></stop>
            <stop stop-color="#F5F5F5" offset="100%"></stop>
        </linearGradient>
        <linearGradient x1="50%" y1="0%" x2="50%" y2="100%" id="linearGradient-22">
            <stop stop-color="#E1E1E1" offset="0%"></stop>
            <stop stop-color="#BABABA" offset="100%"></stop>
        </linearGradient>
        <path d="M58.6517664,37.164287 C58.6517664,37.3946518 58.4703288,37.5813993 58.2465142,37.5813993 L53.383488,37.5813993 C52.7120442,37.5813993 52.1677315,37.0211567 52.1677315,36.3300624 L52.1677315,33.4102763 C52.1677315,32.719182 52.7120442,32.1589394 53.383488,32.1589394 L57.4360098,32.1589394 C58.1074536,32.1589394 58.6517664,32.719182 58.6517664,33.4102763 L58.6517664,34.6616132 C58.6517664,35.1223427 58.2888912,35.4958378 57.841262,35.4958378 L53.383488,35.4958378 L53.383488,35.9129501 C53.383488,36.1433149 53.5649256,36.3300624 53.7887402,36.3300624 L58.2465142,36.3300624 C58.4703288,36.3300624 58.6517664,36.5168099 58.6517664,36.7471747 L58.6517664,37.164287 Z M53.383488,34.2445009 L57.4360098,34.2445009 L57.4360098,33.8273886 C57.4360098,33.5970238 57.2545723,33.4102763 57.0307577,33.4102763 L53.7887402,33.4102763 C53.5649256,33.4102763 53.383488,33.5970238 53.383488,33.8273886 L53.383488,34.2445009 Z M65.5410534,37.164287 C65.5410534,37.3946518 65.3596159,37.5813993 65.1358013,37.5813993 L60.2727751,37.5813993 C59.6013313,37.5813993 59.0570186,37.0211567 59.0570186,36.3300624 L59.0570186,33.4102763 C59.0570186,32.719182 59.6013313,32.1589394 60.2727751,32.1589394 L64.3252969,32.1589394 C64.9967407,32.1589394 65.5410534,32.719182 65.5410534,33.4102763 L65.5410534,34.6616132 C65.5410534,35.1223427 65.1781783,35.4958378 64.7305491,35.4958378 L60.2727751,35.4958378 L60.2727751,35.9129501 C60.2727751,36.1433149 60.4542127,36.3300624 60.6780273,36.3300624 L65.1358013,36.3300624 C65.3596159,36.3300624 65.5410534,36.5168099 65.5410534,36.7471747 L65.5410534,37.164287 Z M60.2727751,34.2445009 L64.3252969,34.2445009 L64.3252969,33.8273886 C64.3252969,33.5970238 64.1438593,33.4102763 63.9200447,33.4102763 L60.6780273,33.4102763 C60.4542127,33.4102763 60.2727751,33.5970238 60.2727751,33.8273886 L60.2727751,34.2445009 Z M50.5467228,30.4904902 C50.5467228,30.2601254 50.7281604,30.0733779 50.951975,30.0733779 L51.3572271,30.0733779 C51.5810417,30.0733779 51.7624793,30.2601254 51.7624793,30.4904902 L51.7624793,36.3281816 L51.762479,36.3291424 C51.7619634,37.0202369 51.2172326,37.5800494 50.5457887,37.5795188 C49.7259021,37.5788702 48.9157091,37.5794972 48.1152097,37.5813993 C46.0284541,37.5809939 45.6633687,35.7043939 45.6793413,34.712954 C45.6953138,33.721514 46.019489,32.3139884 48.1152097,32.1589394 L50.5467228,32.1589394 L50.5467228,30.4904902 Z M48.5204619,36.3300624 C49.0424542,36.33114 50.1231926,36.3289922 50.5467228,36.3300624 C50.5467169,35.9955525 50.5467169,33.4122451 50.5467228,33.4102763 C50.5467169,33.4122451 48.9336292,33.4102763 48.5204619,33.4102763 C47.8039602,33.4102763 46.8751464,33.7725532 46.8757551,34.8703253 C46.8761615,35.9906525 47.7142201,36.3277394 48.5204619,36.3300624 Z M72.4303405,30.9076025 L72.4303405,30.4904902 C72.4303405,30.2601254 72.6117781,30.0733779 72.8355927,30.0733779 L73.2408449,30.0733779 C73.4646595,30.0733779 73.646097,30.2601254 73.646097,30.4904902 L73.646097,30.9076025 C73.646097,31.1379673 73.4646595,31.3247148 73.2408449,31.3247148 L72.8355927,31.3247148 C72.6117781,31.3247148 72.4303405,31.1379673 72.4303405,30.9076025 Z M72.4303405,37.164287 L72.4303405,32.5760517 C72.4303405,32.3456869 72.6117781,32.1589394 72.8355927,32.1589394 L73.2408449,32.1589394 C73.4646595,32.1589394 73.646097,32.3456869 73.646097,32.5760517 L73.646097,37.164287 C73.646097,37.3946518 73.4646595,37.5813993 73.2408449,37.5813993 L72.8355927,37.5813993 C72.6117781,37.5813993 72.4303405,37.3946518 72.4303405,37.164287 Z M74.0513492,32.1589394 C74.0513492,32.159375 75.1320377,32.1594689 77.2934147,32.1592211 L77.2936404,32.1592211 C78.4125622,32.1592211 79.3196276,33.0928327 79.3196276,34.2445009 L79.3196276,37.164287 C79.3196276,37.3946518 79.13819,37.5813993 78.9143754,37.5813993 L78.5091232,37.5813993 C78.2853086,37.5813993 78.103871,37.3946518 78.103871,37.164287 L78.103871,34.2445009 C78.103871,33.7837714 77.7409958,33.4102763 77.2933667,33.4102763 L75.2671058,33.4102763 L75.2671058,37.164287 C75.2727793,37.3622622 75.2808843,37.6135799 74.8618536,37.5813993 C74.8034973,37.5733607 74.492061,37.5744027 74.4566014,37.5813993 C74.1101108,37.5994094 74.0513492,37.4599968 74.0513492,37.164287 L74.0513492,32.1589394 Z M67.1620622,38.8327362 C67.1620622,39.063101 66.9806246,39.2498485 66.75681,39.2498485 L66.3515578,39.2498485 C66.1277432,39.2498485 65.9463056,39.063101 65.9463056,38.8327362 L65.9463056,32.993164 C65.9463056,32.5324345 66.3091808,32.1589394 66.75681,32.1589394 L69.5935752,32.1589394 C70.9364628,32.1589394 72.0250883,33.2794246 72.0250883,34.6616132 L72.0250883,35.0787255 C72.0250883,36.4609141 70.9364628,37.5813993 69.5935752,37.5813993 L67.1620622,37.5813993 L67.1620622,38.8327362 Z M70.8093318,34.6616132 C70.8093318,33.9705189 70.265019,33.4102763 69.5935752,33.4102763 L67.1620622,33.4102763 L67.1620622,36.3300624 L69.5935752,36.3300624 C70.265019,36.3300624 70.8093318,35.7698198 70.8093318,35.0787255 L70.8093318,34.6616132 Z" id="path-23"></path>
        <filter x="-0.7%" y="-2.7%" width="101.5%" height="105.4%" filterUnits="objectBoundingBox" id="filter-25">
            <feOffset dx="0" dy="0.5" in="SourceAlpha" result="shadowOffsetInner1"></feOffset>
            <feComposite in="shadowOffsetInner1" in2="SourceAlpha" operator="arithmetic" k2="-1" k3="1" result="shadowInnerInner1"></feComposite>
            <feColorMatrix values="0 0 0 0 1   0 0 0 0 1   0 0 0 0 1  0 0 0 1 0" type="matrix" in="shadowInnerInner1" result="shadowMatrixInner1"></feColorMatrix>
            <feOffset dx="0" dy="-0.5" in="SourceAlpha" result="shadowOffsetInner2"></feOffset>
            <feComposite in="shadowOffsetInner2" in2="SourceAlpha" operator="arithmetic" k2="-1" k3="1" result="shadowInnerInner2"></feComposite>
            <feColorMatrix values="0 0 0 0 0   0 0 0 0 0   0 0 0 0 0  0 0 0 0.5 0" type="matrix" in="shadowInnerInner2" result="shadowMatrixInner2"></feColorMatrix>
            <feMerge>
                <feMergeNode in="shadowMatrixInner1"></feMergeNode>
                <feMergeNode in="shadowMatrixInner2"></feMergeNode>
            </feMerge>
        </filter>
        <linearGradient x1="96.3846678%" y1="60.7852456%" x2="0%" y2="87.7228799%" id="linearGradient-26">
            <stop stop-color="#AAAAAA" offset="0%"></stop>
            <stop stop-color="#EFF4FF" offset="45.7706229%"></stop>
            <stop stop-color="#7C9AE7" offset="100%"></stop>
        </linearGradient>
        <path d="M23.2249944,48.0955199 C23.1807804,47.0934229 23.0455875,46.3411963 22.8194157,45.8388399 C22.5932438,45.3364836 23.2119808,40.8421646 24.6756266,32.3558831 L40.8877697,18.7475475 L35.7725613,0.988611052 L20.5237351,1.48225352 L3.82848869,8.33818091 L0.0216455858,21.8163765 L0.98671829,39.1181381 L11.2462785,47.3789593 L19.2696692,49.2246102 L23.2249944,48.0955199 Z" id="path-27"></path>
        <linearGradient x1="57.1453552%" y1="0%" x2="13.2289579%" y2="91.6242285%" id="linearGradient-29">
            <stop stop-color="#C8C8C8" offset="0%"></stop>
            <stop stop-color="#FFFFFF" offset="36.5783952%"></stop>
            <stop stop-color="#6C6C6C" offset="77.5325417%"></stop>
            <stop stop-color="#979797" offset="100%"></stop>
        </linearGradient>
        <linearGradient x1="57.1453552%" y1="0%" x2="13.1833023%" y2="92.4084205%" id="linearGradient-30">
            <stop stop-color="#FFFFFF" stop-opacity="0.43189538" offset="0%"></stop>
            <stop stop-color="#FFFFFF" offset="52.1783656%"></stop>
            <stop stop-color="#FFFFFF" stop-opacity="0" offset="100%"></stop>
        </linearGradient>
        <path d="M18.9625,47.9204758 C27.8257366,47.24914 34.85,37.9292202 34.85,26.5306122 C34.85,15.1320043 27.8257366,5.81208449 18.9625,5.14074868 C19.3015721,5.11506605 19.6433355,5.10204082 19.9875,5.10204082 C29.3280158,5.10204082 36.9,14.695939 36.9,26.5306122 C36.9,38.3652855 29.3280158,47.9591837 19.9875,47.9591837 C19.6433355,47.9591837 19.3015721,47.9461584 18.9625,47.9204758 Z" id="path-31"></path>
        <filter x="-1.4%" y="-0.6%" width="102.8%" height="101.2%" filterUnits="objectBoundingBox" id="filter-32">
            <feOffset dx="0.5" dy="0" in="SourceAlpha" result="shadowOffsetInner1"></feOffset>
            <feComposite in="shadowOffsetInner1" in2="SourceAlpha" operator="arithmetic" k2="-1" k3="1" result="shadowInnerInner1"></feComposite>
            <feColorMatrix values="0 0 0 0 0   0 0 0 0 0   0 0 0 0 0  0 0 0 0.5 0" type="matrix" in="shadowInnerInner1"></feColorMatrix>
        </filter>
        <linearGradient x1="55.2357834%" y1="0%" x2="50%" y2="100%" id="linearGradient-33">
            <stop stop-color="#C1C1C1" offset="0%"></stop>
            <stop stop-color="#888888" offset="45.6240755%"></stop>
            <stop stop-color="#CFE0EF" offset="100%"></stop>
        </linearGradient>
        <path d="M22.0375,47.9591837 C12.6969842,47.9591837 5.125,38.3652855 5.125,26.5306122 C5.125,14.695939 12.6969842,5.10204082 22.0375,5.10204082 C31.3780158,5.10204082 38.95,14.695939 38.95,26.5306122 C38.95,38.3652855 31.3780158,47.9591837 22.0375,47.9591837 Z M22.0772068,46.19963 C30.2855389,46.19963 36.9397068,37.5194363 36.9397068,26.8118749 C36.9397068,16.1043134 30.2855389,7.42411975 22.0772068,7.42411975 C13.8688747,7.42411975 7.21470676,16.1043134 7.21470676,26.8118749 C7.21470676,37.5194363 13.8688747,46.19963 22.0772068,46.19963 Z" id="path-34"></path>
        <filter x="-1.5%" y="-1.2%" width="103.0%" height="102.3%" filterUnits="objectBoundingBox" id="filter-35">
            <feOffset dx="0" dy="-1" in="SourceAlpha" result="shadowOffsetInner1"></feOffset>
            <feComposite in="shadowOffsetInner1" in2="SourceAlpha" operator="arithmetic" k2="-1" k3="1" result="shadowInnerInner1"></feComposite>
            <feColorMatrix values="0 0 0 0 0.0507417929   0 0 0 0 0.536495016   0 0 0 0 1  0 0 0 0.713343524 0" type="matrix" in="shadowInnerInner1"></feColorMatrix>
        </filter>
    </defs>
    <g id="Page-4" stroke="none" stroke-width="1" fill="none" fill-rule="evenodd">
        <g id="repair_password">
            <g id="Group-12" filter="url(#filter-1)" transform="translate(-15.000000, -7.000000)">
                <g id="Group-10" transform="translate(58.000000, 27.000000)">
                    <mask id="mask-4" fill="white">
                        <use xlink:href="#path-3"></use>
                    </mask>
                    <g id="Mask">
                        <use fill="black" fill-opacity="1" filter="url(#filter-5)" xlink:href="#path-3"></use>
                        <use fill="url(#linearGradient-2)" fill-rule="evenodd" xlink:href="#path-3"></use>
                        <use fill="black" fill-opacity="1" filter="url(#filter-6)" xlink:href="#path-3"></use>
                    </g>
                    <g id="Imported-Layers" mask="url(#mask-4)">
                        <g transform="translate(30.422535, 30.365854)">
                            <g>
                                <g id="Group-3">
                                    <mask id="mask-8" fill="white">
                                        <use xlink:href="#path-7"></use>
                                    </mask>
                                    <g id="Clip-2"></g>
                                    <path d="M49.6521735,25.0405737 C49.6521735,38.4569366 38.7555515,49.3332566 25.3141454,49.3332566 C11.8727392,49.3332566 0.976117183,38.4569366 0.976117183,25.0405737 C0.976117183,11.6242107 11.8727392,0.747890732 25.3141454,0.747890732 C38.7555515,0.747890732 49.6521735,11.6242107 49.6521735,25.0405737" id="Fill-1" mask="url(#mask-8)"></path>
                                </g>
                                <path d="M48.7633495,25.0279833 C48.7633495,37.9615118 38.2591604,48.44613 25.3014899,48.44613 C12.3438195,48.44613 1.83963042,37.9615118 1.83963042,25.0279833 C1.83963042,12.0944549 12.3438195,1.60882341 25.3014899,1.60882341 C38.2591604,1.60882341 48.7633495,12.0944549 48.7633495,25.0279833" id="Fill-4" stroke="#FFFFFF" stroke-width="2"></path>
                                <mask id="mask-10" fill="white">
                                    <use xlink:href="#path-9"></use>
                                </mask>
                                <use id="Clip-6" fill="#FFFFFF" xlink:href="#path-9"></use>
                            </g>
                        </g>
                    </g>
                </g>
                <g id="Group-8" transform="translate(0.000000, 28.000000)">
                    <g id="Group-9">
                        <mask id="mask-13" fill="white">
                            <use xlink:href="#path-12"></use>
                        </mask>
                        <g id="Mask" transform="translate(52.487624, 52.298351) scale(-1, 1) rotate(-45.000000) translate(-52.487624, -52.298351) ">
                            <use fill="black" fill-opacity="1" filter="url(#filter-14)" xlink:href="#path-12"></use>
                            <use fill="url(#linearGradient-11)" fill-rule="evenodd" xlink:href="#path-12"></use>
                            <use fill="black" fill-opacity="1" filter="url(#filter-15)" xlink:href="#path-12"></use>
                        </g>
                        <g id="Path-13" mask="url(#mask-13)" transform="translate(49.029041, 78.923347) scale(-1, 1) rotate(-45.000000) translate(-49.029041, -78.923347) ">
                            <use fill="black" fill-opacity="1" filter="url(#filter-18)" xlink:href="#path-17"></use>
                            <use fill="url(#linearGradient-16)" fill-rule="evenodd" xlink:href="#path-17"></use>
                        </g>
                        <path d="M45.1010048,46.2694297 C42.0711997,42.1657758 40.6123386,37.2604938 40.7213778,32.3731398 C40.8253563,37.0320774 42.3551562,41.6554978 45.3134163,45.5328215 L45.1010048,46.2694297 Z M86.1156227,32.0348005 C86.2496926,38.0420004 84.0132899,44.1082542 79.4120714,48.7103319 C75.5998105,52.5233048 70.7826289,54.712607 65.8267145,55.275021 L64.0873872,59.8472464 L60.5076106,60.0729558 L45.4334026,99.9986649 C40.9991535,103.5569 37.2885187,101.843901 34.3014984,94.8596662 C34.431926,94.8004769 34.556945,94.7409698 34.6765554,94.6811448 C37.5972847,100.957208 41.1829004,102.389846 45.4334026,98.979057 L60.5076106,59.053348 L64.0873872,58.8276385 L65.8267145,54.2554131 C70.7826289,53.6929991 75.5998105,51.5036969 79.4120714,47.6907241 C83.7530411,43.3489437 85.9891416,37.7039333 86.1156227,32.0348005 Z M36.5556076,92.0640376 C36.5549254,92.0623388 36.5542398,92.0606397 36.553551,92.0589404 C35.7854604,90.7576905 35.5172526,89.826048 35.7489275,89.2640129 C35.8732307,89.7493847 36.1414385,90.3411579 36.553551,91.0393325 C36.6953826,91.3891965 36.6960681,91.7307649 36.5556076,92.0640376 Z M40.9068766,85.4713535 C40.1648496,83.4025396 39.8641679,82.2171577 40.0048316,81.9152075 C40.0347184,81.9054961 40.0644321,81.8957717 40.0939728,81.8860342 C40.2735188,82.6352179 40.6500067,83.778616 41.2234365,85.3162288 L40.9068766,85.4713535 Z M43.7249575,78.6896436 C42.3675002,76.3382893 41.8882405,75.0764114 42.2871787,74.9040098 C42.2992101,74.9010818 42.3112154,74.8981506 42.3231947,74.8952165 C42.5702898,75.5692509 43.0837181,76.5736934 43.8634795,77.9085441 C43.9015119,78.1752465 43.855338,78.4356129 43.7249575,78.6896436 Z M46.3161087,71.8953363 C44.5843758,69.4095652 43.8445337,67.9959671 44.0965822,67.6545421 C44.1562521,67.6245861 44.2149936,67.594733 44.2728069,67.5649825 C44.6063473,68.3014866 45.3119412,69.4401576 46.3895886,70.9809957 C46.4953646,71.3011863 46.4708713,71.6059665 46.3161087,71.8953363 Z M46.8300033,64.5831752 C45.4560425,61.6144828 44.8459082,59.9748089 44.9996003,59.6641535 L45.1006263,59.3985751 C45.3413046,60.2085048 45.9317221,61.6269628 46.8718789,63.6539491 C47.0196349,63.9457905 47.0056763,64.2555325 46.8300033,64.5831752 Z M46.5342847,54.6101499 C44.6089711,53.5793578 43.6412259,52.8381749 43.631049,52.3866014 L43.8134378,51.7541072 C44.2032944,52.2342704 45.217863,52.903373 46.8571435,53.761415 L46.5342847,54.6101499 Z" id="Combined-Shape" fill="url(#linearGradient-19)" mask="url(#mask-13)"></path>
                        <ellipse id="Oval-8" stroke="url(#linearGradient-21)" fill="url(#linearGradient-20)" mask="url(#mask-13)" transform="translate(63.418500, 32.713774) scale(-1, 1) rotate(-45.000000) translate(-63.418500, -32.713774) " cx="63.4185003" cy="32.7137741" rx="19.7647857" ry="19.9158804"></ellipse>
                        <mask id="mask-24" fill="white">
                            <use xlink:href="#path-23"></use>
                        </mask>
                        <g id="Mask" transform="translate(62.499239, 34.661613) rotate(22.000000) translate(-62.499239, -34.661613) ">
                            <use fill="url(#linearGradient-22)" fill-rule="evenodd" xlink:href="#path-23"></use>
                            <use fill="black" fill-opacity="1" filter="url(#filter-25)" xlink:href="#path-23"></use>
                        </g>
                    </g>
                    <path d="M60.062291,23.6608997 C60.0499792,23.4925859 60.0437142,23.3225781 60.0437142,23.1510957 C60.0437142,19.3749204 63.081685,16.3137255 66.8292118,16.3137255 C70.5767386,16.3137255 73.6147094,19.3749204 73.6147094,23.1510957 C73.6147094,23.3225781 73.6084444,23.4925859 73.5961325,23.6608997 C73.3373276,20.1228133 70.4065573,17.3333333 66.8292118,17.3333333 C63.2518663,17.3333333 60.321096,20.1228133 60.062291,23.6608997 Z" id="Combined-Shape" fill="url(#linearGradient-26)"></path>
                </g>
                <g id="Group-11" transform="translate(74.500000, 30.000000) rotate(16.000000) translate(-74.500000, -30.000000) translate(54.000000, 5.000000)">
                    <mask id="mask-28" fill="white">
                        <use xlink:href="#path-27"></use>
                    </mask>
                    <g id="Mask"></g>
                    <path d="M20.5,5.18939734 C11.8800062,6.17360925 5.125,15.3526073 5.125,26.5306122 C5.125,37.7086172 11.8800062,46.8876152 20.5,47.8718271 C19.9936059,47.9296461 19.4807754,47.9591837 18.9625,47.9591837 C9.62198417,47.9591837 2.05,38.3652855 2.05,26.5306122 C2.05,14.695939 9.62198417,5.10204082 18.9625,5.10204082 C19.4807754,5.10204082 19.9936059,5.13157837 20.5,5.18939734 Z" id="Combined-Shape" fill="url(#linearGradient-29)" mask="url(#mask-28)"></path>
                    <path d="M21.525,5.18939734 C12.9050062,6.17360925 6.15,15.3526073 6.15,26.5306122 C6.15,37.7086172 12.9050062,46.8876152 21.525,47.8718271 C21.0186059,47.9296461 20.5057754,47.9591837 19.9875,47.9591837 C10.6469842,47.9591837 3.075,38.3652855 3.075,26.5306122 C3.075,14.695939 10.6469842,5.10204082 19.9875,5.10204082 C20.5057754,5.10204082 21.0186059,5.13157837 21.525,5.18939734 Z" id="Combined-Shape" fill="url(#linearGradient-29)" mask="url(#mask-28)"></path>
                    <path d="M18.8473202,47.9112566 C10.0384858,47.1682849 3.075,37.8797997 3.075,26.5306122 C3.075,14.695939 10.6469842,5.10204082 19.9875,5.10204082 C20.5313377,5.10204082 21.0691801,5.13456392 21.5998817,5.19815879 C21.223065,5.16637659 20.8428715,5.15023169 20.4597019,5.15023169 C11.1191861,5.15023169 3.5472019,14.7441299 3.5472019,26.5788031 C3.5472019,37.72442 10.2631198,46.8825974 18.8473202,47.9112566 Z" id="Combined-Shape" fill-opacity="0.519842618" fill="#0F0F0F" mask="url(#mask-28)"></path>
                    <path d="M19.3369044,47.7714995 C10.52807,47.0285278 3.56458422,37.7400426 3.56458422,26.3908551 C3.56458422,14.5561819 11.1365684,4.96228371 20.4770842,4.96228371 C21.0209219,4.96228371 21.5587643,4.99480681 22.089466,5.05840168 C21.7126492,5.02661948 21.3324558,5.01047458 20.9492861,5.01047458 C11.6087703,5.01047458 4.03678613,14.6043728 4.03678613,26.439046 C4.03678613,37.5846629 10.7527041,46.7428403 19.3369044,47.7714995 Z" id="Combined-Shape" fill="url(#linearGradient-30)" mask="url(#mask-28)"></path>
                    <path d="M17.9375,47.9204758 C26.8007366,47.24914 33.825,37.9292202 33.825,26.5306122 C33.825,15.1320043 26.8007366,5.81208449 17.9375,5.14074868 C18.2765721,5.11506605 18.6183355,5.10204082 18.9625,5.10204082 C28.3030158,5.10204082 35.875,14.695939 35.875,26.5306122 C35.875,38.3652855 28.3030158,47.9591837 18.9625,47.9591837 C18.6183355,47.9591837 18.2765721,47.9461584 17.9375,47.9204758 Z" id="Combined-Shape" fill="url(#linearGradient-29)" mask="url(#mask-28)"></path>
                    <g id="Combined-Shape" mask="url(#mask-28)">
                        <use fill="url(#linearGradient-29)" fill-rule="evenodd" xlink:href="#path-31"></use>
                        <use fill="black" fill-opacity="1" filter="url(#filter-32)" xlink:href="#path-31"></use>
                    </g>
                    <g id="Combined-Shape" mask="url(#mask-28)">
                        <use fill="url(#linearGradient-33)" fill-rule="evenodd" xlink:href="#path-34"></use>
                        <use fill="black" fill-opacity="1" filter="url(#filter-35)" xlink:href="#path-34"></use>
                    </g>
                </g>
            </g>
        </g>
    </g>
</svg>