<?xml version="1.0" encoding="UTF-8"?>
<svg width="128px" height="128px" viewBox="0 0 128 128" version="1.1" xmlns="http://www.w3.org/2000/svg" xmlns:xlink="http://www.w3.org/1999/xlink">
    <!-- Generator: Sketch 48.2 (47327) - http://www.bohemiancoding.com/sketch -->
    <title>repair_grub</title>
    <desc>Created with Sketch.</desc>
    <defs>
        <path d="M60.1196018,98 L35.0940916,95.4693825 L0,98 L8.57142857,0 L35.0940916,2.5306175 L60.1196018,0 L84.910876,2.53014352 L111.428571,0 L120,98 L84.9115407,95.4697886 L60.1196018,98 Z" id="path-1"></path>
        <filter x="-8.8%" y="-7.7%" width="117.5%" height="121.4%" filterUnits="objectBoundingBox" id="filter-2">
            <feOffset dx="0" dy="3" in="SourceAlpha" result="shadowOffsetOuter1"></feOffset>
            <feGaussianBlur stdDeviation="3" in="shadowOffsetOuter1" result="shadowBlurOuter1"></feGaussianBlur>
            <feColorMatrix values="0 0 0 0 0   0 0 0 0 0   0 0 0 0 0  0 0 0 0.2 0" type="matrix" in="shadowBlurOuter1"></feColorMatrix>
        </filter>
        <linearGradient x1="14.6930558%" y1="46.2586635%" x2="100%" y2="46.2586641%" id="linearGradient-3">
            <stop stop-color="#FFFFFF" stop-opacity="0.1" offset="0%"></stop>
            <stop stop-color="#000000" stop-opacity="0.102270154" offset="100%"></stop>
        </linearGradient>
        <linearGradient x1="0%" y1="77.3994272%" x2="100%" y2="42.6470118%" id="linearGradient-4">
            <stop stop-color="#FFFFFF" stop-opacity="0.1" offset="0%"></stop>
            <stop stop-color="#FFFFFF" stop-opacity="0.02" offset="39.6802267%"></stop>
            <stop stop-color="#000000" stop-opacity="0.05" offset="100%"></stop>
        </linearGradient>
        <linearGradient x1="0%" y1="53.8883507%" x2="100%" y2="53.8883545%" id="linearGradient-5">
            <stop stop-color="#000000" stop-opacity="0.1" offset="0%"></stop>
            <stop stop-color="#000000" stop-opacity="0.02" offset="39.6802267%"></stop>
            <stop stop-color="#000000" stop-opacity="0.05" offset="100%"></stop>
        </linearGradient>
        <radialGradient cx="20.2313672%" cy="78.0030076%" fx="20.2313672%" fy="78.0030076%" r="81.3662839%" gradientTransform="translate(0.202314,0.780030),scale(0.416667,1.000000),rotate(-5.748320),scale(1.000000,0.438880),translate(-0.202314,-0.780030)" id="radialGradient-6">
            <stop stop-color="#1F0348" stop-opacity="0.474099864" offset="0%"></stop>
            <stop stop-color="#000000" stop-opacity="0" offset="100%"></stop>
        </radialGradient>
        <filter x="-12.5%" y="-30.0%" width="125.0%" height="160.0%" filterUnits="objectBoundingBox" id="filter-7">
            <feGaussianBlur stdDeviation="1" in="SourceGraphic"></feGaussianBlur>
        </filter>
        <radialGradient cx="41.5403288%" cy="30.4440974%" fx="41.5403288%" fy="30.4440974%" r="60.7968955%" gradientTransform="translate(0.415403,0.304441),rotate(66.129236),scale(1.000000,1.105796),translate(-0.415403,-0.304441)" id="radialGradient-8">
            <stop stop-color="#FBF511" offset="0%"></stop>
            <stop stop-color="#C1B600" offset="100%"></stop>
        </radialGradient>
        <circle id="path-9" cx="11" cy="11" r="11"></circle>
        <filter x="-15.9%" y="-15.9%" width="131.8%" height="131.8%" filterUnits="objectBoundingBox" id="filter-11">
            <feGaussianBlur stdDeviation="1.5" in="SourceAlpha" result="shadowBlurInner1"></feGaussianBlur>
            <feOffset dx="-2" dy="-4" in="shadowBlurInner1" result="shadowOffsetInner1"></feOffset>
            <feComposite in="shadowOffsetInner1" in2="SourceAlpha" operator="arithmetic" k2="-1" k3="1" result="shadowInnerInner1"></feComposite>
            <feColorMatrix values="0 0 0 0 0.568664966   0 0 0 0 0.450394118   0 0 0 0 0.13800402  0 0 0 0.5 0" type="matrix" in="shadowInnerInner1" result="shadowMatrixInner1"></feColorMatrix>
            <feGaussianBlur stdDeviation="1" in="SourceAlpha" result="shadowBlurInner2"></feGaussianBlur>
            <feOffset dx="-2" dy="-2" in="shadowBlurInner2" result="shadowOffsetInner2"></feOffset>
            <feComposite in="shadowOffsetInner2" in2="SourceAlpha" operator="arithmetic" k2="-1" k3="1" result="shadowInnerInner2"></feComposite>
            <feColorMatrix values="0 0 0 0 0.873769087   0 0 0 0 0.943399235   0 0 0 0 0.145768285  0 0 0 0.544638813 0" type="matrix" in="shadowInnerInner2" result="shadowMatrixInner2"></feColorMatrix>
            <feMerge>
                <feMergeNode in="shadowMatrixInner1"></feMergeNode>
                <feMergeNode in="shadowMatrixInner2"></feMergeNode>
            </feMerge>
        </filter>
        <linearGradient x1="34.322058%" y1="0%" x2="49.5128764%" y2="96.8929369%" id="linearGradient-12">
            <stop stop-color="#FFFFFF" offset="0%"></stop>
            <stop stop-color="#FFFFFF" stop-opacity="0.0586786685" offset="100%"></stop>
        </linearGradient>
        <radialGradient cx="20.2313672%" cy="78.0030076%" fx="20.2313672%" fy="78.0030076%" r="81.3662839%" gradientTransform="translate(0.202314,0.780030),scale(0.416234,1.000000),rotate(-5.742385),scale(1.000000,0.438880),translate(-0.202314,-0.780030)" id="radialGradient-13">
            <stop stop-color="#1F0348" stop-opacity="0.474099864" offset="0%"></stop>
            <stop stop-color="#000000" stop-opacity="0" offset="100%"></stop>
        </radialGradient>
        <filter x="-12.6%" y="-30.2%" width="125.1%" height="160.4%" filterUnits="objectBoundingBox" id="filter-14">
            <feGaussianBlur stdDeviation="1.2" in="SourceGraphic"></feGaussianBlur>
        </filter>
        <radialGradient cx="41.5403288%" cy="30.4440974%" fx="41.5403288%" fy="30.4440974%" r="59.7112366%" gradientTransform="translate(0.415403,0.304441),scale(0.998960,1.000000),rotate(66.107177),scale(1.000000,1.105796),translate(-0.415403,-0.304441)" id="radialGradient-15">
            <stop stop-color="#5AC2FA" offset="0%"></stop>
            <stop stop-color="#1B3EFF" offset="100%"></stop>
        </radialGradient>
        <ellipse id="path-16" cx="14.3225806" cy="14.3076923" rx="14.3225806" ry="14.3076923"></ellipse>
        <filter x="-15.7%" y="-15.7%" width="131.4%" height="131.5%" filterUnits="objectBoundingBox" id="filter-18">
            <feGaussianBlur stdDeviation="2" in="SourceAlpha" result="shadowBlurInner1"></feGaussianBlur>
            <feOffset dx="-2" dy="-5" in="shadowBlurInner1" result="shadowOffsetInner1"></feOffset>
            <feComposite in="shadowOffsetInner1" in2="SourceAlpha" operator="arithmetic" k2="-1" k3="1" result="shadowInnerInner1"></feComposite>
            <feColorMatrix values="0 0 0 0 0.0516804397   0 0 0 0 0.247701247   0 0 0 0 0.467447917  0 0 0 0.5 0" type="matrix" in="shadowInnerInner1" result="shadowMatrixInner1"></feColorMatrix>
            <feGaussianBlur stdDeviation="1" in="SourceAlpha" result="shadowBlurInner2"></feGaussianBlur>
            <feOffset dx="-2" dy="-2" in="shadowBlurInner2" result="shadowOffsetInner2"></feOffset>
            <feComposite in="shadowOffsetInner2" in2="SourceAlpha" operator="arithmetic" k2="-1" k3="1" result="shadowInnerInner2"></feComposite>
            <feColorMatrix values="0 0 0 0 0.145768285   0 0 0 0 0.769865735   0 0 0 0 0.943399235  0 0 0 0.544638813 0" type="matrix" in="shadowInnerInner2" result="shadowMatrixInner2"></feColorMatrix>
            <feMerge>
                <feMergeNode in="shadowMatrixInner1"></feMergeNode>
                <feMergeNode in="shadowMatrixInner2"></feMergeNode>
            </feMerge>
        </filter>
        <radialGradient cx="39.1581603%" cy="29.2352451%" fx="39.1581603%" fy="29.2352451%" r="72.9822637%" gradientTransform="translate(0.391582,0.292352),scale(0.998982,1.000000),rotate(55.489962),translate(-0.391582,-0.292352)" id="radialGradient-19">
            <stop stop-color="#FFFFFF" offset="0%"></stop>
            <stop stop-color="#FFFFFF" stop-opacity="0.969146286" offset="55.3575423%"></stop>
            <stop stop-color="#FFFFFF" stop-opacity="0.588881341" offset="100%"></stop>
        </radialGradient>
        <filter x="-12.5%" y="-30.0%" width="125.0%" height="160.0%" filterUnits="objectBoundingBox" id="filter-20">
            <feGaussianBlur stdDeviation="1" in="SourceGraphic"></feGaussianBlur>
        </filter>
        <radialGradient cx="41.5403288%" cy="30.4440974%" fx="41.5403288%" fy="30.4440974%" r="60.7968955%" gradientTransform="translate(0.415403,0.304441),rotate(66.129236),scale(1.000000,1.105796),translate(-0.415403,-0.304441)" id="radialGradient-21">
            <stop stop-color="#AFAFAF" offset="0.442442602%"></stop>
            <stop stop-color="#212121" offset="100%"></stop>
        </radialGradient>
        <circle id="path-22" cx="13" cy="13" r="13"></circle>
        <filter x="-13.5%" y="-13.5%" width="126.9%" height="126.9%" filterUnits="objectBoundingBox" id="filter-24">
            <feGaussianBlur stdDeviation="1.5" in="SourceAlpha" result="shadowBlurInner1"></feGaussianBlur>
            <feOffset dx="-2" dy="-4" in="shadowBlurInner1" result="shadowOffsetInner1"></feOffset>
            <feComposite in="shadowOffsetInner1" in2="SourceAlpha" operator="arithmetic" k2="-1" k3="1" result="shadowInnerInner1"></feComposite>
            <feColorMatrix values="0 0 0 0 0.14801233   0 0 0 0 0.14801233   0 0 0 0 0.14801233  0 0 0 0.5 0" type="matrix" in="shadowInnerInner1" result="shadowMatrixInner1"></feColorMatrix>
            <feGaussianBlur stdDeviation="1" in="SourceAlpha" result="shadowBlurInner2"></feGaussianBlur>
            <feOffset dx="-2" dy="-2" in="shadowBlurInner2" result="shadowOffsetInner2"></feOffset>
            <feComposite in="shadowOffsetInner2" in2="SourceAlpha" operator="arithmetic" k2="-1" k3="1" result="shadowInnerInner2"></feComposite>
            <feColorMatrix values="0 0 0 0 0.556946216   0 0 0 0 0.556946216   0 0 0 0 0.556946216  0 0 0 0.544638813 0" type="matrix" in="shadowInnerInner2" result="shadowMatrixInner2"></feColorMatrix>
            <feMerge>
                <feMergeNode in="shadowMatrixInner1"></feMergeNode>
                <feMergeNode in="shadowMatrixInner2"></feMergeNode>
            </feMerge>
        </filter>
        <linearGradient x1="5.97358741%" y1="20.8036069%" x2="97.4214696%" y2="49.1993336%" id="linearGradient-25">
            <stop stop-color="#C23A00" offset="0%"></stop>
            <stop stop-color="#F74747" offset="46.9678433%"></stop>
            <stop stop-color="#C60D0D" offset="100%"></stop>
        </linearGradient>
        <radialGradient cx="45.6350297%" cy="10.3461108%" fx="45.6350297%" fy="10.3461108%" r="52.0297982%" gradientTransform="translate(0.456350,0.103461),scale(1.000000,0.586898),rotate(90.000000),translate(-0.456350,-0.103461)" id="radialGradient-26">
            <stop stop-color="#FFA489" offset="0%"></stop>
            <stop stop-color="#F2003E" offset="100%"></stop>
        </radialGradient>
        <path d="M17,57.9317414 C5.66666667,36.903141 0,23.2592272 0,17 C0,7.61115925 7.61115925,0 17,0 C26.3888407,0 34,7.61115925 34,17 C34,23.2592272 28.3333333,36.903141 17,57.9317414 Z M16,25 C19.8659932,25 23,21.8659932 23,18 C23,14.1340068 19.8659932,11 16,11 C12.1340068,11 9,14.1340068 9,18 C9,21.8659932 12.1340068,25 16,25 Z" id="path-27"></path>
        <filter x="-38.2%" y="-12.1%" width="176.5%" height="148.3%" filterUnits="objectBoundingBox" id="filter-29">
            <feOffset dx="0" dy="8" in="SourceAlpha" result="shadowOffsetOuter1"></feOffset>
            <feGaussianBlur stdDeviation="3" in="shadowOffsetOuter1" result="shadowBlurOuter1"></feGaussianBlur>
            <feColorMatrix values="0 0 0 0 0   0 0 0 0 0   0 0 0 0 0  0 0 0 0.2 0" type="matrix" in="shadowBlurOuter1"></feColorMatrix>
        </filter>
        <filter x="-22.1%" y="-2.6%" width="144.1%" height="129.3%" filterUnits="objectBoundingBox" id="filter-30">
            <feGaussianBlur stdDeviation="0.5" in="SourceAlpha" result="shadowBlurInner1"></feGaussianBlur>
            <feOffset dx="0" dy="2" in="shadowBlurInner1" result="shadowOffsetInner1"></feOffset>
            <feComposite in="shadowOffsetInner1" in2="SourceAlpha" operator="arithmetic" k2="-1" k3="1" result="shadowInnerInner1"></feComposite>
            <feColorMatrix values="0 0 0 0 1   0 0 0 0 0.706242109   0 0 0 0 0.706242109  0 0 0 0.457370924 0" type="matrix" in="shadowInnerInner1"></feColorMatrix>
        </filter>
        <linearGradient x1="3.71582897%" y1="11.854821%" x2="100%" y2="36.8203644%" id="linearGradient-31">
            <stop stop-color="#FE5026" offset="0%"></stop>
            <stop stop-color="#FF7676" offset="31.9412341%"></stop>
            <stop stop-color="#E30403" offset="65.6193676%"></stop>
            <stop stop-color="#E60033" offset="100%"></stop>
        </linearGradient>
        <path d="M16.8010079,57.5621951 C26.9336693,38.4391226 32,25.9183909 32,20 C32,10.6111593 24.3888407,3 15,3 C9.74318499,3 5.04365246,5.38600996 1.92530754,9.13412477 C4.76391766,3.70515883 10.4492657,0 17,0 C26.3888407,0 34,7.61115925 34,17 C34,23.2592272 28.3333333,36.903141 17,57.9317414 C16.9334741,57.8083048 16.8671434,57.6851227 16.8010079,57.5621951 Z" id="path-32"></path>
        <filter x="-15.6%" y="-8.6%" width="131.2%" height="117.3%" filterUnits="objectBoundingBox" id="filter-33">
            <feGaussianBlur stdDeviation="1" in="SourceGraphic"></feGaussianBlur>
        </filter>
        <filter x="-18.7%" y="-10.4%" width="137.4%" height="120.7%" filterUnits="objectBoundingBox" id="filter-34">
            <feOffset dx="0" dy="0" in="SourceAlpha" result="shadowOffsetOuter1"></feOffset>
            <feGaussianBlur stdDeviation="1" in="shadowOffsetOuter1" result="shadowBlurOuter1"></feGaussianBlur>
            <feColorMatrix values="0 0 0 0 0.990300808   0 0 0 0 0.368729728   0 0 0 0 0.365423499  0 0 0 1 0" type="matrix" in="shadowBlurOuter1"></feColorMatrix>
        </filter>
    </defs>
    <g id="Page-4" stroke="none" stroke-width="1" fill="none" fill-rule="evenodd">
        <g id="repair_grub">
            <g id="Group-4" transform="translate(4.000000, 9.000000)">
                <g id="Group-5" transform="translate(0.000000, 12.000000)">
                    <g id="Combined-Shape">
                        <use fill="black" fill-opacity="1" filter="url(#filter-2)" xlink:href="#path-1"></use>
                        <use fill="#FFFFFF" fill-rule="evenodd" xlink:href="#path-1"></use>
                    </g>
                    <g id="Group-2" transform="translate(8.000000, 4.000000)">
                        <path d="M51.75,56.0716519 C53.2846826,56.2780227 60.0340724,57.2577531 64.1158537,59.030303 C68.7781167,61.4911474 75.859542,61.5818111 76.9207317,61.030303 C77.4406865,61.234334 102.530488,62.030303 102.530488,62.030303 L104.237805,87.030303 L76.9207317,86.030303 L51.75,87.0178628 L51.75,87.030303 L51.6103045,87.0233437 L51.4329268,87.030303 L51.4329268,87.0145072 L31.6768293,86.030303 L31.6768293,32.030303 L50.2975662,32.030303 L48,32.030303 L48,53 L51.75,53 L51.75,56.0716519 Z M23.9939024,1.03030303 L23.9939024,22.030303 L4.3597561,22.030303 L6.06707317,0.0303030303 L23.9939024,1.03030303 Z M31.6768293,1.03030303 L48.75,0.0303030303 L48.75,22.030303 L31.6768293,22.030303 L31.6768293,1.03030303 Z M23.1402439,86.030303 L0.0914634146,87.030303 L3.50609756,32.030303 L23.1402439,32.030303 L23.1402439,86.030303 Z M56.4329268,0.0303030303 L77.7743902,2.03030303 L98.2621951,0.0303030303 L99.9695122,21.030303 L77.7743902,22.030303 L56.4329268,21.030303 L56.4329268,0.0303030303 Z M56.4329268,31.030303 L100.823171,31.030303 L101.676829,52.030303 C101.676829,52.030303 77.4406865,52.0303034 76.9207317,52.030303 C75.859542,51.6811275 73.8502828,52.8725713 65.8231707,50.030303 C58.5880012,47.2384527 56.4329268,49.030303 56.4329268,49.030303 L56.4329268,31.030303 Z" id="Mask" fill="#F7F7F7"></path>
                        <path d="M103.164454,85.9903409 L101.594438,63.0008272 C100.521624,62.9662248 99.5457028,62.9344134 98.4947173,62.8997481 C95.4918388,62.8007023 92.4889323,62.6986315 89.6860335,62.5991252 C88.7910399,62.5673518 87.9292179,62.5362845 87.1045116,62.5060333 C81.1739144,62.2884918 78.2040882,62.1644972 77.0718219,62.0470474 C74.7485048,62.8333266 67.6089298,62.0046205 63.7175316,59.9475486 C61.9777433,59.1920301 59.574993,58.5197808 56.7759698,57.9430881 C54.8832942,57.5531334 53.0805122,57.2595684 51.6167282,57.0627314 L50.75,56.9461813 L50.75,54 L47,54 L47,33.030303 L32.6768293,33.030303 L32.6768293,85.0788806 L51.6155908,86.0223669 L76.9573143,85.0309724 L103.164454,85.9903409 Z M49.1487831,32.030303 L50.2975662,32.030303 L49.1487831,32.030303 Z M49.1487831,32.030303 L50.2975662,32.030303 L49.1487831,32.030303 Z M49.1487831,32.030303 L48,32.030303 L48,53 L51.75,53 L51.75,56.0716519 C53.2846826,56.2780227 60.0340724,57.2577531 64.1158537,59.030303 C68.7781167,61.4911474 75.859542,61.5818111 76.9207317,61.030303 C77.4406865,61.234334 102.530488,62.030303 102.530488,62.030303 L104.237805,87.030303 L76.9207317,86.030303 L51.75,87.0178628 L51.4329268,87.030303 L31.6768293,86.030303 L31.6768293,32.030303 L49.1487831,32.030303 Z M22.9939024,21.030303 L22.9939024,1.97607534 L6.9883657,1.08324948 L5.44036819,21.030303 L22.9939024,21.030303 Z M23.9939024,1.03030303 L23.9939024,22.030303 L4.3597561,22.030303 L6.06707317,0.0303030303 L23.9939024,1.03030303 Z M47.75,1.0905883 L32.6768293,1.97344544 L32.6768293,21.030303 L47.75,21.030303 L47.75,1.0905883 Z M31.6768293,1.03030303 L48.75,0.0303030303 L48.75,22.030303 L31.6768293,22.030303 L31.6768293,1.03030303 Z M1.15840537,85.9830717 L22.1402439,85.0727485 L22.1402439,33.030303 L4.44593868,33.030303 L1.15840537,85.9830717 Z M23.1402439,86.030303 L0.0914634146,87.030303 L3.50609756,32.030303 L23.1402439,32.030303 L23.1402439,86.030303 Z M57.4329268,1.1283989 L57.4329268,20.0762523 L77.729381,21.0313165 L98.8887881,20.0779805 L97.3478397,1.12431498 L77.8715475,3.02557208 L77.6810848,3.02594056 L57.4329268,1.1283989 Z M56.4329268,0.0303030303 L77.7743902,2.03030303 L98.2621951,0.0303030303 L99.9695122,21.030303 L77.7743902,22.030303 L56.4329268,21.030303 L56.4329268,0.0303030303 Z M99.8629953,32.030303 L57.4329268,32.030303 L57.4329268,47.5986503 C59.3905392,47.2039879 62.2472744,47.5786484 66.1569482,49.0876511 C70.7257863,50.7054015 73.1740332,51.0741545 75.6777704,50.9769027 C76.4871483,50.9454643 76.7487266,50.9440968 77.0678492,51.030303 C77.8485623,51.0303031 78.0130045,51.0303031 80.9321974,51.0303032 C84.7507943,51.0303032 84.7507943,51.0303032 89.2945367,51.0303032 L95.3741273,51.0303031 L100.635353,51.0303032 L99.8629953,32.030303 Z M101.636179,51.030303 L101.63783,51.0709199 L100.717135,52.030303 L100.676439,52.030303 L100.635353,51.030303 L101.636179,51.030303 Z M56.4329268,31.030303 L100.823171,31.030303 L101.676829,52.0303032 C101.676829,52.0303032 77.4406865,52.0303034 76.9207317,52.030303 C75.859542,51.6811275 73.8502828,52.8725713 65.8231707,50.030303 C58.5880012,47.2384527 56.4329268,49.030303 56.4329268,49.030303 L56.4329268,31.030303 Z" id="Mask" fill-opacity="0.3" fill="#C5C4C4" fill-rule="nonzero"></path>
                        <polygon id="Rectangle-2" fill="#D2D2D2" points="2.05237328 57.030303 23.1402439 57.030303 23.1402439 86.030303 0.213414634 87.030303"></polygon>
                        <polygon id="Rectangle" fill="#D2D2D2" points="48.75 1.03030303 48.75 22.030303 31.6768293 22.030303 31.6768293 0.0303030303"></polygon>
                        <path d="M22.1402439,85.0729693 L22.1402439,58.030303 L2.99295166,58.030303 L1.27949889,85.9828528 L22.1402439,85.0729693 Z M2.05237328,57.030303 L23.1402439,57.030303 L23.1402439,86.030303 L0.213414634,87.030303 L2.05237328,57.030303 Z" id="Rectangle-2" fill-opacity="0.147984601" fill="#979797" fill-rule="nonzero"></path>
                        <path d="M47.75,1.0905883 L32.6768293,1.97344544 L32.6768293,21.030303 L47.75,21.030303 L47.75,1.0905883 Z M31.6768293,1.03030303 L48.75,0.0303030303 L48.75,22.030303 L31.6768293,22.030303 L31.6768293,1.03030303 Z" id="Rectangle" fill-opacity="0.147984601" fill="#979797" fill-rule="nonzero"></path>
                    </g>
                    <polygon id="Rectangle-9" fill="url(#linearGradient-3)" points="35 2.5306175 35 95.4693825 0 98 8.54844751 0"></polygon>
                    <polygon id="Rectangle-9" fill="url(#linearGradient-4)" transform="translate(47.500000, 49.000000) scale(-1, 1) translate(-47.500000, -49.000000) " points="60 2.5306175 60 95.4693825 35 98 35 0"></polygon>
                    <polygon id="Rectangle-9" fill="url(#linearGradient-5)" points="85 2.5306175 85 95.4693825 60 98 60 0"></polygon>
                    <polyline id="Path-2" stroke="#7ECD01" stroke-width="4" points="112.29807 28.4949821 85.2678738 30.6108286 59.0726628 29.5529054 59.0726628 53.1517116"></polyline>
                </g>
                <g id="windows" transform="translate(11.000000, 18.000000)">
                    <ellipse id="Mask" fill="url(#radialGradient-6)" filter="url(#filter-7)" cx="18" cy="20" rx="12" ry="5"></ellipse>
                    <mask id="mask-10" fill="white">
                        <use xlink:href="#path-9"></use>
                    </mask>
                    <g id="Mask">
                        <use fill="url(#radialGradient-8)" fill-rule="evenodd" xlink:href="#path-9"></use>
                        <use fill="black" fill-opacity="1" filter="url(#filter-11)" xlink:href="#path-9"></use>
                    </g>
                    <path d="M9,12 L9,17 L4,16.2780347 L4,12 L9,12 Z M9,6 L9,11 L4,11 L4,6.71320213 L9,6 Z M17,12 L17,18 L10,17.0458017 L10,12 L17,12 Z M17,5 L17,11 L10,11 L10,5.9445834 L17,5 Z" id="win" fill="#000000" fill-rule="nonzero" mask="url(#mask-10)"></path>
                    <ellipse id="Oval-5" fill="url(#linearGradient-12)" mask="url(#mask-10)" cx="10.5" cy="8.5" rx="7.5" ry="6.5"></ellipse>
                </g>
                <g id="windows" transform="translate(46.000000, 62.000000)">
                    <ellipse id="Mask" fill="url(#radialGradient-13)" filter="url(#filter-14)" cx="22.6774194" cy="25.0384615" rx="14.3225806" ry="5.96153846"></ellipse>
                    <mask id="mask-17" fill="white">
                        <use xlink:href="#path-16"></use>
                    </mask>
                    <g id="Mask">
                        <use fill="url(#radialGradient-15)" fill-rule="evenodd" xlink:href="#path-16"></use>
                        <use fill="black" fill-opacity="1" filter="url(#filter-18)" xlink:href="#path-16"></use>
                    </g>
                    <path d="M14.3225806,23.8465665 C9.04913447,23.8465665 4.77419355,19.5760695 4.77419355,14.308105 C4.77419355,9.04014058 9.04913447,4.76923077 14.3225806,4.76923077 C19.5960268,4.76923077 23.8709677,9.04014058 23.8709677,14.308105 C23.8709677,19.5760695 19.5960268,23.8465665 14.3225806,23.8465665 Z M6.91433409,17.8131126 C7.95674393,20.1657233 10.0090208,21.9374513 12.4957793,22.5305404 C14.6356449,21.9984835 17.318353,20.4798594 18.5560199,17.9545637 C18.5560199,17.9545637 20.9596904,13.8715114 16.8928725,10.1962976 C16.8928725,10.1962976 17.9387444,11.9008902 17.9705948,13.6169713 C17.9705948,13.6169713 18.2184744,15.8730076 16.2946379,17.2817736 C13.3283917,19.4534419 8.63079641,18.331886 6.91433409,17.8131126 Z M7.73747258,9.12044278 C8.24583836,11.8215912 9.38547153,14.1001206 10.1434812,14.9283546 C11.1232026,15.998895 12.5662491,17.1353257 14.4178038,16.6655917 C16.2700569,16.1958575 16.6467923,14.1419219 16.6467923,14.1419219 C17.0559989,12.3940575 16.4736128,10.3185128 16.442189,10.2749402 C16.4107653,10.2310133 16.13284,10.1821269 16.13284,10.1821269 C16.4233348,12.9346415 15.7096674,14.1525494 15.7096674,14.1525494 C14.6712885,16.3106341 13.1475877,15.6432291 13.1475877,15.6432291 C11.4521041,14.7668171 11.53206,12.2959306 11.53206,12.2959306 C11.4803854,10.5781773 12.151107,7.73816328 13.4405265,6.08488334 C11.1448501,6.27157254 9.11487848,7.41437973 7.73747258,9.12044278 Z M17.7007404,6.90716619 C16.6482168,7.74370475 14.8576274,9.5300631 14.8576274,9.5300631 C12.2012584,11.9369269 12.716568,13.9636448 12.716568,13.9636448 C13.139805,16.0909362 14.4570373,14.6578557 14.4570373,14.6578557 C15.841839,13.2581785 15.7386287,10.4704428 15.7386287,10.4704428 C15.1780252,10.5597607 14.8231002,10.8625703 14.8231002,10.8625703 C14.754417,12.7208187 13.6324677,13.8739638 13.6324677,13.8739638 C13.1973504,14.3445167 12.8884616,13.8964748 12.8884616,13.8964748 C12.6597652,13.5602619 13.1171581,13.3253485 13.1171581,13.3253485 C13.7579538,12.7767331 13.9502667,11.8407104 13.942099,11.4896111 C13.9328175,11.1374226 14.1247591,11.0415692 14.1247591,11.0415692 C15.0291497,10.3582508 15.9339117,9.95523092 15.9339117,9.95523092 C17.147191,9.35070111 19.3108973,9.2497646 19.3108973,9.2497646 C19.8978601,9.26900789 20.4588348,9.24068757 20.9076887,9.202201 C20.0389391,8.21534691 18.9433493,7.42455657 17.7007404,6.90716619 Z" id="deepin" fill="url(#radialGradient-19)" fill-rule="nonzero" mask="url(#mask-17)"></path>
                    <ellipse id="Oval-5" fill="url(#linearGradient-12)" opacity="0.400000006" mask="url(#mask-17)" cx="13.1290323" cy="10.7307692" rx="9.5483871" ry="8.34615385"></ellipse>
                </g>
                <g id="windows" transform="translate(87.000000, 36.000000)">
                    <ellipse id="Mask" fill="url(#radialGradient-6)" filter="url(#filter-20)" cx="20" cy="22" rx="12" ry="5"></ellipse>
                    <mask id="mask-23" fill="white">
                        <use xlink:href="#path-22"></use>
                    </mask>
                    <g id="Mask">
                        <use fill="url(#radialGradient-21)" fill-rule="evenodd" xlink:href="#path-22"></use>
                        <use fill="black" fill-opacity="1" filter="url(#filter-24)" xlink:href="#path-22"></use>
                    </g>
                    <path d="M12.5858159,8.12868801 C12.5121609,8.13538351 12.4602685,8.17053713 12.4301365,8.23414886 C12.4000045,8.29776059 12.3715464,8.32956421 12.3447622,8.32956421 C12.3112824,8.3362597 12.2945437,8.31952096 12.2945437,8.27934572 C12.2945437,8.19899299 12.3581532,8.14877451 12.4853767,8.12868801 L12.5858159,8.12868801 Z M13.4596346,8.26930247 C13.4328504,8.27599797 13.394349,8.25423535 13.3441305,8.20401687 C13.2939098,8.15379613 13.2353219,8.13873126 13.1683625,8.15881775 C13.3290657,8.08516277 13.4361981,8.09185827 13.4897666,8.1789065 C13.5098531,8.21908174 13.4998099,8.24921373 13.4596346,8.26930247 Z M18.5217552,16.1637988 C18.5217552,16.0432708 18.33762,15.9026586 17.9693406,15.7419554 C17.9961248,15.6415161 18.0212352,15.5494486 18.0446695,15.4657481 C18.068106,15.3820498 18.0848469,15.2950039 18.0948902,15.2046079 C18.1049334,15.1142119 18.1149767,15.0422308 18.1250222,14.9886646 C18.1350654,14.9350961 18.1367393,14.8597672 18.1300438,14.7626758 C18.1233483,14.6655843 18.1200006,14.6003009 18.1200006,14.5668212 C18.1200006,14.5333415 18.1082812,14.4596865 18.0848469,14.345854 C18.0614105,14.2320238 18.0480195,14.1633904 18.0446695,14.1399562 C18.0413217,14.1165197 18.024583,14.0328215 17.994451,13.888857 C17.964319,13.7448948 17.9459064,13.656175 17.9392086,13.6226952 C17.8722491,13.3012888 17.7148982,12.9564527 17.4671467,12.5881733 C17.2193953,12.2198961 16.9783461,11.9688014 16.7439857,11.8348825 C16.9046889,11.9688014 17.0955218,12.2466804 17.316489,12.668526 C17.8990379,13.7532709 18.0798253,14.6839947 17.8588581,15.4607265 C17.7852032,15.7285644 17.6178067,15.8691788 17.3566643,15.8825698 C17.1490881,15.9093541 17.020193,15.8474162 16.9699745,15.6967585 C16.9197538,15.5460986 16.8929718,15.266548 16.889624,14.8580934 C16.886274,14.4496387 16.8477749,14.0914116 16.7741177,13.7833962 C16.7138537,13.5222537 16.6485703,13.2912478 16.5782631,13.0903694 C16.5079559,12.8894909 16.4426703,12.7371593 16.3824063,12.6333724 C16.3221423,12.5295854 16.27025,12.4475611 16.226727,12.3872971 C16.1832017,12.3270331 16.1396787,12.2768146 16.0961558,12.2366371 C16.0526328,12.1964619 16.0275224,12.1730276 16.0208269,12.1663299 C15.9270832,11.751182 15.8232962,11.4063436 15.709466,11.1318102 C15.5956358,10.8572767 15.4968704,10.6697916 15.4131722,10.5693523 C15.3294717,10.4689131 15.2507951,10.3584306 15.1771401,10.2379049 C15.1034852,10.117377 15.0532644,9.98346024 15.0264824,9.83614803 C14.9996982,9.69553357 15.0197847,9.51642 15.0867442,9.29880056 C15.1537036,9.08118112 15.1687708,8.91545854 15.1319433,8.80162832 C15.0951135,8.68779585 14.946132,8.60409763 14.6849895,8.55053139 C14.5845503,8.53044265 14.4355665,8.47018092 14.2380358,8.36973944 C14.0405051,8.26930022 13.9216532,8.21573399 13.881478,8.20903849 C13.8279095,8.20234299 13.791082,8.11529702 13.7709955,7.94789606 C13.7509068,7.78049736 13.777691,7.60975316 13.851346,7.43565896 C13.925001,7.26156476 14.0455267,7.17116878 14.2129254,7.16447328 C14.4606768,7.14438679 14.631421,7.24482376 14.7251648,7.46579095 C14.8189085,7.68675589 14.8322995,7.88093658 14.76534,8.04833528 C14.691685,8.17555875 14.6849895,8.2642786 14.7452535,8.31449933 C14.8055152,8.36471782 14.9059545,8.3663917 15.0465689,8.31952096 C15.1336172,8.29273672 15.1771401,8.172211 15.1771401,7.95794156 L15.1771401,7.58631666 C15.1436604,7.38543822 15.0984635,7.21804177 15.0415473,7.08412281 C14.9846311,6.95020384 14.9143261,6.84809075 14.8306256,6.77778352 C14.7469251,6.70747629 14.6682508,6.6572578 14.5945936,6.62712581 C14.5209386,6.59699382 14.4305448,6.57188345 14.3234101,6.55179696 C13.6069423,6.60536319 13.3089747,7.05398631 13.4295026,7.89767758 C13.4295026,7.9981168 13.4261549,8.04833528 13.4194594,8.04833528 C13.3591954,7.9880713 13.2604323,7.95291994 13.1231633,7.94287444 C12.9858966,7.93283119 12.8754164,7.93450507 12.7917159,7.94789606 C12.7080155,7.96128931 12.6561231,7.94454831 12.6360366,7.89767758 C12.6427321,7.51600718 12.5891636,7.21469402 12.4753334,6.99372683 C12.3615032,6.77276189 12.2108455,6.65893168 12.023358,6.65223618 C11.8425683,6.64553843 11.7036277,6.73760828 11.6065363,6.92844122 C11.5094448,7.11927642 11.4542047,7.31847874 11.4408137,7.52605268 C11.4341159,7.62649415 11.4458353,7.75036537 11.4759673,7.89767758 C11.5060971,8.04498979 11.5496223,8.17053713 11.6065363,8.2743241 C11.6634525,8.37811107 11.7153449,8.42330793 11.7622179,8.40991693 C11.8291773,8.38982819 11.8827436,8.34295745 11.9229188,8.26930247 C11.9497031,8.20903849 11.9262688,8.18225425 11.8526116,8.18894975 C11.8057408,8.18894975 11.7538485,8.14040513 11.6969322,8.04331366 C11.640016,7.94622219 11.6082101,7.83406584 11.6015146,7.70684463 C11.5948192,7.55953242 11.6249511,7.43565896 11.6919106,7.33521974 C11.7588701,7.23478051 11.8726981,7.18790978 12.0334013,7.19460527 C12.1472337,7.19460527 12.2376275,7.2649125 12.304587,7.40552697 C12.3715464,7.54614143 12.4033523,7.67671039 12.4000045,7.79723836 C12.3966568,7.91776632 12.3916352,7.9914213 12.3849374,8.01820329 C12.2376275,8.11864476 12.1338405,8.21573399 12.0735788,8.30947771 C12.0200103,8.38982819 11.9279427,8.46850479 11.7973715,8.54550752 C11.6668003,8.6225125 11.5981669,8.66436161 11.5914714,8.67105711 C11.5044232,8.76480083 11.4525308,8.85519456 11.4357898,8.94224278 C11.4190511,9.02928876 11.4441614,9.08955274 11.5111209,9.12303248 C11.6048624,9.17660097 11.6885606,9.24188432 11.7622179,9.31888705 C11.8358728,9.39589203 11.8894391,9.45950151 11.9229188,9.50972225 C11.9563985,9.55994073 12.0183364,9.60346372 12.1087324,9.64029346 C12.1991261,9.67712095 12.3179779,9.69888132 12.4652902,9.70557682 C12.7799988,9.71897006 13.1214895,9.66875158 13.4897666,9.55491911 C13.5031576,9.54822361 13.5801603,9.52478712 13.7207748,9.48461188 C13.8613915,9.44443664 13.9768956,9.40928303 14.0672893,9.37915104 C14.1576853,9.34901904 14.2564484,9.30549606 14.3635854,9.24857982 C14.4707201,9.19166584 14.5410273,9.13307573 14.5745071,9.07281175 C14.634771,8.97907027 14.7017283,8.95228603 14.7753833,8.99246127 C14.808863,9.01255001 14.8306256,9.04100588 14.8406689,9.07783562 C14.8507144,9.11466311 14.8406689,9.15483835 14.8105369,9.19836134 C14.7804071,9.24188432 14.7251648,9.27369019 14.6448143,9.29377893 C14.5108953,9.33395417 14.3217363,9.40593528 14.0773348,9.50972225 C13.8329311,9.61350922 13.6805996,9.67879483 13.6203378,9.70557682 C13.3257157,9.83280028 13.0913597,9.90980301 12.9172655,9.93658725 C12.7498646,9.97006699 12.4853789,9.9633715 12.1237973,9.91649851 C12.0568378,9.90310751 12.0267058,9.90980301 12.0334013,9.93658725 C12.040099,9.9633715 12.097013,10.026981 12.2041477,10.1274202 C12.3715464,10.2814279 12.5958591,10.3550829 12.877088,10.3483874 C12.9909205,10.3416919 13.1114462,10.3182554 13.2386697,10.2780802 C13.3658932,10.2379027 13.4864189,10.1910319 13.6002491,10.1374657 C13.7140793,10.0838972 13.8262356,10.0253094 13.9367204,9.96169762 C14.0472028,9.89808589 14.1476398,9.84116966 14.2380358,9.79095117 C14.3284318,9.74073043 14.4104561,9.7005552 14.4841111,9.6704232 C14.5577661,9.64029346 14.6163562,9.63192184 14.6598792,9.64531509 C14.7034021,9.65870608 14.7318603,9.69553357 14.7452535,9.75579755 C14.7452535,9.76918855 14.7419035,9.78425567 14.735208,9.80099442 C14.7285125,9.81773541 14.7151215,9.83447416 14.6950328,9.85121515 C14.6749463,9.8679539 14.6548575,9.88301877 14.6347688,9.89641202 C14.6146823,9.90980301 14.5862242,9.92654401 14.5493967,9.9466305 C14.5125692,9.96671925 14.4824372,9.98178412 14.4590007,9.99182961 C14.4355665,10.0018729 14.4020867,10.0186116 14.3585637,10.0420481 C14.3150385,10.0654846 14.2832326,10.0805495 14.2631461,10.087245 C14.0756587,10.1809887 13.8496744,10.3282986 13.5851842,10.5291771 C13.3206918,10.7300555 13.0980552,10.8740155 12.9172655,10.9610637 C12.7364736,11.0481119 12.5724249,11.0514597 12.4251149,10.971107 C12.2844982,10.897452 12.0735788,10.6530528 11.7923498,10.2379049 C11.6450376,10.0303287 11.5613394,9.95667375 11.5412507,10.0169377 C11.5345552,10.0370265 11.5312074,10.0705062 11.5312074,10.117377 C11.5312074,10.2847757 11.4809889,10.4739347 11.3805497,10.6848564 C11.2801105,10.8957804 11.1813451,11.0815894 11.0842537,11.2422926 C10.9871622,11.4029958 10.9168572,11.5971765 10.873332,11.8248392 C10.829809,12.0525019 10.8683104,12.2634214 10.9888383,12.4576043 C10.8348306,12.4977795 10.625585,12.7990927 10.3610949,13.3615528 C10.0966047,13.9240151 9.93757761,14.3960725 9.88400913,14.7777429 C9.87061813,14.8982686 9.86559651,15.1292768 9.86894426,15.4707697 C9.87229201,15.8122649 9.85387939,16.0097933 9.8137019,16.0633595 C9.76013566,16.2240627 9.66304419,16.234106 9.52242973,16.0934915 C9.30815804,15.8859176 9.18763457,15.5712112 9.16085033,15.1493655 C9.14745708,14.9618803 9.16085033,14.7743951 9.20102557,14.5869077 C9.22780981,14.4596842 9.22446206,14.3994225 9.19098232,14.406118 L9.15080483,14.4563387 C8.90975115,14.8915754 8.94323089,15.447331 9.25124405,16.1236235 C9.2847238,16.203974 9.36842202,16.2977177 9.50234098,16.4048524 C9.6362622,16.5119872 9.71661042,16.5789466 9.74339467,16.6057309 C9.87731363,16.7597363 10.2254998,17.0627256 10.7879599,17.5147032 C11.35042,17.9666786 11.6617786,18.2227972 11.7220426,18.2830589 C11.8291773,18.3835004 11.8877652,18.5107216 11.8978107,18.664727 C11.9078539,18.8187348 11.8609832,18.9626947 11.7571962,19.0966159 C11.653407,19.2305349 11.5010777,19.3075376 11.3001992,19.3276241 C11.3537655,19.4280633 11.4508569,19.5770472 11.5914714,19.7745779 C11.7320859,19.9721083 11.8258273,20.1528967 11.8727003,20.3169476 C11.9195711,20.4809986 11.9430076,20.7170277 11.9430076,21.0250418 C12.2510207,20.8643388 12.2744572,20.5563292 12.0133148,20.1010039 C11.9865305,20.0474363 11.9513769,19.9938694 11.9078539,19.9403018 C11.8643309,19.886734 11.8325251,19.846559 11.8124363,19.8197749 C11.7923498,19.7929912 11.7856521,19.772904 11.7923498,19.7595107 C11.8124363,19.726031 11.8559593,19.6942274 11.9229188,19.6640954 C11.9898783,19.6339634 12.0568378,19.6423328 12.1237973,19.6892035 C12.4318104,20.0373944 12.9875683,20.1579199 13.791082,20.0507845 C14.6816463,19.950345 15.2742294,19.659076 15.5688515,19.1769664 C15.7228592,18.9225195 15.8366872,18.8220825 15.9103444,18.8756487 C15.9906949,18.9158262 16.0241747,19.0899182 16.0107837,19.3979313 C16.0040859,19.56533 15.9270854,19.8733403 15.7797732,20.3219695 C15.7195092,20.4759767 15.6994227,20.6015241 15.7195092,20.6986153 C15.739598,20.7957068 15.8199485,20.8475998 15.9605629,20.8542958 C15.9806517,20.7270725 16.0291963,20.4692819 16.106199,20.0809163 C16.183204,19.6925513 16.2284008,19.3912358 16.2417918,19.1769664 C16.2551851,19.0363519 16.2334225,18.7902789 16.1765062,18.4387405 C16.1195922,18.0872021 16.0944819,17.7624524 16.1011774,17.4644825 C16.1078729,17.1665126 16.1848756,16.9304828 16.3321878,16.7563886 C16.432627,16.6358606 16.6033712,16.5755989 16.8444249,16.5755989 C16.8511204,16.3278475 16.9666245,16.1504078 17.1909394,16.043273 C17.4152544,15.9361361 17.6579797,15.9009847 17.9191221,15.9378122 C18.1802645,15.9746397 18.3811407,16.0499685 18.5217552,16.1637988 Z M12.2141932,7.85750234 C12.2342797,7.74366987 12.2259103,7.6432329 12.1890829,7.55618467 C12.1522554,7.4691387 12.113754,7.41891796 12.0735788,7.40552697 C12.0133148,7.39213597 11.9831828,7.41557021 11.9831828,7.4758342 C11.9965738,7.50931394 12.0133148,7.52940268 12.0334013,7.53609818 C12.1003608,7.53609818 12.1237973,7.58631666 12.1037085,7.68675589 C12.083622,7.82067485 12.110404,7.88763433 12.1840612,7.88763433 C12.2041477,7.88763433 12.2141932,7.87758883 12.2141932,7.85750234 Z M14.6347688,7.69679913 C14.6347688,7.62314415 14.61803,7.55785855 14.5845503,7.50094456 C14.5510706,7.44402833 14.5142431,7.40217922 14.4740678,7.37539497 C14.4338926,7.34861073 14.4037606,7.33856748 14.3836719,7.34526298 C14.2899281,7.35195848 14.2664939,7.37539497 14.3133646,7.41557021 C14.3267579,7.42226571 14.3401489,7.42896346 14.3535399,7.43565896 C14.4472836,7.4624432 14.5075476,7.56622792 14.5343318,7.74701987 C14.5343318,7.76710636 14.5611138,7.76041087 14.6146823,7.72693113 L14.6347688,7.69679913 Z M20.851937,18.8254303 C20.985856,18.9057807 21.089643,18.9878051 21.163298,19.0715056 C21.2369529,19.1552038 21.2771282,19.2355543 21.2838259,19.3125592 C21.2905214,19.389562 21.282152,19.4648908 21.2587156,19.5385458 C21.2352791,19.6122008 21.1833867,19.6858558 21.103034,19.7595107 C21.0226835,19.8331673 20.9440069,19.898452 20.8670042,19.9553676 C20.7899992,20.0122831 20.6895622,20.0742199 20.5656865,20.1411796 C20.4418108,20.208139 20.3363522,20.2633801 20.249304,20.3069037 C20.1622557,20.3504274 20.0551233,20.4023204 19.9278998,20.4625839 C19.8006763,20.5228477 19.7102826,20.5663707 19.6567141,20.5931545 C19.4022672,20.7203777 19.1160212,20.9078618 18.7979625,21.1556123 C18.4799038,21.4033629 18.2271353,21.6176305 18.0396478,21.7984213 C17.9258176,21.9055567 17.6981572,21.9708414 17.3566643,21.9942772 C17.0151691,22.0177131 16.7172037,21.9691681 16.4627568,21.8486408 C16.3422311,21.7883772 16.2434657,21.7097008 16.166463,21.6126093 C16.0894603,21.5155181 16.0342179,21.4301457 16.0007382,21.3564903 C15.9672584,21.2828347 15.8936034,21.21755 15.7797732,21.1606344 C15.665943,21.1037186 15.5085898,21.0719134 15.3077114,21.0652175 C15.0130892,21.0585215 14.5778571,21.0551736 14.0020037,21.0551736 C13.8747825,21.0551736 13.6839496,21.0601954 13.4295026,21.0702393 C13.1750557,21.0802832 12.9808773,21.0886531 12.8469583,21.095349 C12.5523361,21.102045 12.2861743,21.1522639 12.0484684,21.2460074 C11.8107625,21.3397509 11.6316466,21.4401888 11.5111209,21.5473242 C11.390593,21.6544596 11.2449569,21.7498756 11.0742104,21.833575 C10.903464,21.9172745 10.7243504,21.9557757 10.5368629,21.9490797 C10.34268,21.9423838 9.9710596,21.838598 9.42199051,21.6377192 C8.87292141,21.4368403 8.3841253,21.2928793 7.95558282,21.2058319 C7.82835958,21.1790479 7.65761515,21.1472427 7.44334459,21.110415 C7.2290738,21.0735871 7.06167735,21.0434558 6.94115005,21.0200199 C6.82062276,20.9965841 6.68837948,20.9647787 6.54441637,20.924603 C6.40045326,20.8844271 6.28829759,20.8358823 6.20794599,20.7789665 C6.1275945,20.7220509 6.07067968,20.6567662 6.03719989,20.5831108 C5.97024028,20.4291035 5.9936758,20.2064663 6.10750712,19.9151921 C6.22133833,19.6239179 6.28160119,19.4414566 6.28829714,19.3677994 C6.29499309,19.2606646 6.28160141,19.1267479 6.24812167,18.9660447 C6.21464171,18.8053415 6.18116242,18.6630554 6.14768268,18.5391797 C6.11420287,18.415304 6.09913719,18.2931044 6.10248516,18.1725764 C6.10583316,18.0520507 6.14098641,17.9616547 6.20794599,17.901393 C6.30168948,17.8210403 6.49252153,17.7741696 6.78044775,17.7607786 C7.06837397,17.7473853 7.26924994,17.7072101 7.38308106,17.6402506 C7.58395995,17.5197226 7.72457306,17.4025469 7.80492444,17.2887144 C7.88527604,17.1748842 7.92545128,17.00414 7.92545128,16.7764773 C8.06606641,17.2652824 7.95893259,17.6201618 7.60404667,17.841129 C7.3897761,17.975048 7.11189786,18.0252665 6.77040383,17.9917867 C6.54274114,17.9717002 6.39878028,18.0051777 6.33851652,18.092226 C6.2514692,18.1926652 6.26820884,18.3834981 6.38873613,18.664727 C6.40212803,18.7049045 6.42891137,18.7651663 6.46908706,18.8455167 C6.50926298,18.9258695 6.53772042,18.9861312 6.55446029,19.0263087 C6.57120016,19.0664839 6.5862657,19.1233979 6.59965783,19.1970529 C6.61304972,19.2707101 6.61639747,19.3443629 6.60970152,19.4180201 C6.60970152,19.5184593 6.55278686,19.682508 6.43895552,19.91017 C6.32512418,20.1378327 6.27825322,20.2985334 6.29834106,20.3922767 C6.3184289,20.5061081 6.44230237,20.5931543 6.66996506,20.653418 C6.80388424,20.6935937 7.08678434,20.7555304 7.51867367,20.8392298 C7.950563,20.9229294 8.28368158,20.991562 8.51803976,21.0451296 C8.67874297,21.0853053 8.9264899,21.1589598 9.26128955,21.2660952 C9.59608696,21.3732306 9.87228976,21.4502329 10.0899092,21.4971048 C10.3075286,21.5439764 10.4933377,21.5573681 10.6473454,21.5372802 C10.9352721,21.4971046 11.1512132,21.4033624 11.2951754,21.2560513 C11.4391398,21.1087402 11.5161425,20.9480395 11.5261858,20.7739446 C11.536229,20.5998495 11.5111209,20.4039956 11.4508569,20.1863771 C11.390593,19.9687583 11.3269812,19.7946659 11.2600217,19.6640954 C11.1930623,19.5335242 11.126105,19.4113246 11.0591456,19.2974921 C10.248934,18.0252597 9.68313293,17.2150617 9.36172652,16.8668711 C8.90640115,16.3713704 8.52808526,16.2374537 8.22676759,16.4651164 C8.15311239,16.5253804 8.10289345,16.4751597 8.07610966,16.3144565 C8.05602159,16.2073217 8.04932587,16.0801005 8.05602182,15.9327906 C8.06271776,15.7386076 8.09619705,15.5645134 8.15646059,15.410508 C8.21672435,15.2565003 8.29707482,15.0991471 8.39751404,14.9384438 C8.49795327,14.7777406 8.57160825,14.6371284 8.61847898,14.5166005 C8.67204747,14.375986 8.76076732,14.1349346 8.88464303,13.7934417 C9.00851875,13.4519465 9.10728185,13.1908086 9.18093682,13.0100166 C9.25459405,12.8292269 9.35503103,12.625003 9.48225449,12.3973403 C9.60947795,12.1696776 9.74004692,11.9888902 9.87396588,11.8549712 C10.6105224,10.8974475 11.0256658,10.2446027 11.1194073,9.89641202 C11.0390568,9.14646448 10.9854906,8.10860602 10.9587063,6.78280514 C10.9453131,6.18016981 11.0256636,5.67295883 11.19976,5.26115644 C11.3738542,4.84935406 11.7287359,4.49949628 12.2644117,4.21156961 C12.5255541,4.07095515 12.873738,4.00064792 13.3089769,4.00064792 C13.6638631,3.99395243 14.0187425,4.03914929 14.3736286,4.13624076 C14.7285148,4.23333223 15.0264802,4.37227057 15.2675339,4.55306252 C15.6492043,4.83429144 15.955539,5.24106545 16.1865517,5.7733958 C16.4175622,6.3057239 16.5163253,6.79954389 16.4828455,7.25486926 C16.4493658,7.89098433 16.5498028,8.60744088 16.7841632,9.4042614 C17.0118259,10.1609044 17.457099,10.8907542 18.1200006,11.5938288 C18.4882777,11.9888902 18.8213967,12.5346025 19.1193667,13.2309838 C19.4173366,13.9273629 19.6165389,14.5668167 19.7169781,15.1493655 C19.7705466,15.4774674 19.7872853,15.760368 19.7671966,15.9980739 C19.7471101,16.2357821 19.7069349,16.4215912 19.6466709,16.5555101 C19.5864069,16.6894291 19.5194497,16.7630841 19.4457924,16.7764773 C19.378833,16.7898683 19.3001564,16.8534801 19.2097626,16.9673103 C19.1193667,17.0811405 19.0289729,17.1999923 18.938577,17.3238681 C18.848181,17.4477438 18.7125904,17.5599001 18.5317984,17.6603393 C18.3510087,17.7607786 18.1467848,17.8076493 17.9191221,17.8009538 C17.7985942,17.7942583 17.6931356,17.7775173 17.6027396,17.7507331 C17.5123436,17.7239488 17.4370148,17.678752 17.3767508,17.6151402 C17.316489,17.5515285 17.2712899,17.4996361 17.2411602,17.4594609 C17.2110282,17.4192856 17.1725268,17.3506523 17.1256538,17.2535608 C17.0787831,17.1564693 17.0486511,17.091186 17.0352601,17.0577063 C16.8879479,16.8099548 16.7506834,16.7095178 16.62346,16.7563886 C16.4962365,16.8032593 16.402495,16.967308 16.3422311,17.2485392 C16.2819671,17.5297704 16.3054036,17.8545178 16.4125383,18.2227972 C16.5464573,18.6915135 16.549805,19.3443606 16.4225815,20.181355 C16.3556221,20.6165926 16.415886,20.9530596 16.6033712,21.1907659 C16.7908587,21.4284725 17.0352579,21.5389543 17.3365755,21.5222145 C17.6378954,21.5054746 17.9224676,21.386623 18.1903078,21.1656562 C18.5853692,20.8375543 18.8850085,20.6149169 19.0892347,20.4977376 C19.2934609,20.3805582 19.6399731,20.2382713 20.1287782,20.0708723 C20.4836644,19.950345 20.7414546,19.8281457 20.9021578,19.7042706 C21.062861,19.5803949 21.1247966,19.4648908 21.0879691,19.3577561 C21.0511416,19.2506214 20.9674434,19.1552038 20.8368722,19.0715056 C20.706301,18.9878051 20.5338829,18.9091285 20.3196112,18.8354735 C20.098644,18.7618185 19.9329214,18.6011176 19.822439,18.3533661 C19.7119565,18.105617 19.6617358,17.8628917 19.6717812,17.6251857 C19.6818245,17.3874775 19.7337169,17.2284527 19.8274606,17.1481 C19.8341561,17.3556762 19.8609403,17.544833 19.9078111,17.7155794 C19.954684,17.8863281 20.0032287,18.0219187 20.0534494,18.122358 C20.1036679,18.2227972 20.1723012,18.3182125 20.2593472,18.4086085 C20.3463954,18.4990045 20.4167027,18.562614 20.4702689,18.5994414 C20.5238374,18.6362712 20.5958185,18.6797942 20.6862145,18.7300127 C20.7766082,18.7802334 20.8318505,18.812037 20.851937,18.8254303 Z" id="linux" fill="#FFFFFF" fill-rule="nonzero" mask="url(#mask-23)"></path>
                    <ellipse id="Oval-5" fill="url(#linearGradient-12)" opacity="0.300000012" mask="url(#mask-23)" cx="12" cy="10" rx="8" ry="7"></ellipse>
                </g>
                <g id="Group-6" transform="translate(43.000000, 0.000000)">
                    <path d="M10.0099255,14.375992 C10.2052889,18.0671666 13.2601445,21 17,21 C19.5394625,21 21.763087,19.6477364 22.9900745,17.624008 C22.9966637,17.7485038 23,17.8738623 23,18 C23,21.8659932 19.8659932,25 16,25 C12.1340068,25 9,21.8659932 9,18 C9,16.6734693 9.3689881,15.4331204 10.0099255,14.375992 Z" id="Combined-Shape" fill="url(#linearGradient-25)"></path>
                    <mask id="mask-28" fill="white">
                        <use xlink:href="#path-27"></use>
                    </mask>
                    <g id="Mask">
                        <use fill="black" fill-opacity="1" filter="url(#filter-29)" xlink:href="#path-27"></use>
                        <use fill="url(#radialGradient-26)" fill-rule="evenodd" xlink:href="#path-27"></use>
                        <use fill="black" fill-opacity="1" filter="url(#filter-30)" xlink:href="#path-27"></use>
                    </g>
                    <g id="Combined-Shape" filter="url(#filter-33)" mask="url(#mask-28)">
                        <use fill="black" fill-opacity="1" filter="url(#filter-34)" xlink:href="#path-32"></use>
                        <use fill="url(#linearGradient-31)" fill-rule="evenodd" xlink:href="#path-32"></use>
                    </g>
                </g>
            </g>
        </g>
    </g>
</svg>